HIERARCHY
ROOT Hips
{
	OFFSET 0.000000 0.000000 0.000000
	CHANNELS 6 Xposition Yposition Zposition Zrotation Xrotation Yrotation
	JOINT RightUpLeg
	{
		OFFSET -10.032200 0.000000 0.000000
		CHANNELS 3 Zrotation Xrotation Yrotation
		JOINT RightLeg
		{
			OFFSET 0.000000 -40.977000 0.000000
			CHANNELS 3 Zrotation Xrotation Yrotation
			JOINT RightFoot
			{
				OFFSET 0.000000 -38.933200 0.000000
				CHANNELS 3 Zrotation Xrotation Yrotation
				JOINT RightToe
				{
					OFFSET 0.000000 -1.977400 9.184000
					CHANNELS 3 Zrotation Xrotation Yrotation
					JOINT RightToeEnd
					{
						OFFSET 0.000000 2.335600 6.099100
						CHANNELS 3 Zrotation Xrotation Yrotation
						End Site
						{
						    OFFSET 0.000000 1.788000 4.669400
						}
					}
				}
			}
		}
	}
	JOINT LeftUpLeg
	{
		OFFSET 10.032200 0.000000 0.000000
		CHANNELS 3 Zrotation Xrotation Yrotation
		JOINT LeftLeg
		{
			OFFSET 0.000000 -40.977000 0.000000
			CHANNELS 3 Zrotation Xrotation Yrotation
			JOINT LeftFoot
			{
				OFFSET 0.000000 -38.933200 0.000000
				CHANNELS 3 Zrotation Xrotation Yrotation
				JOINT LeftToe
				{
					OFFSET 0.000000 -1.977400 9.184000
					CHANNELS 3 Zrotation Xrotation Yrotation
					JOINT LeftToeEnd
					{
						OFFSET 0.000000 2.335600 6.099100
						CHANNELS 3 Zrotation Xrotation Yrotation
						End Site
						{
						    OFFSET 0.000000 1.788000 4.669400
						}
					}
				}
			}
		}
	}
	JOINT Spine
	{
		OFFSET 0.000000 16.960900 0.000000
		CHANNELS 3 Zrotation Xrotation Yrotation
		JOINT Spine1
		{
			OFFSET 0.000000 13.413900 0.000000
			CHANNELS 3 Zrotation Xrotation Yrotation
			JOINT Spine2
			{
				OFFSET 0.000000 10.384400 0.000000
				CHANNELS 3 Zrotation Xrotation Yrotation
				JOINT LeftShoulder
				{
					OFFSET 2.000000 10.384400 0.000000
					CHANNELS 3 Zrotation Xrotation Yrotation
					JOINT LeftArm
					{
						OFFSET 15.649100 0.000000 0.000000
						CHANNELS 3 Zrotation Xrotation Yrotation
						JOINT LeftForeArm
						{
							OFFSET 0.000000 -26.641600 0.000000
							CHANNELS 3 Zrotation Xrotation Yrotation
							JOINT LeftHand
							{
								OFFSET 0.000000 -23.740600 0.000000
								CHANNELS 3 Zrotation Xrotation Yrotation
								JOINT LeftFinger0
								{
									OFFSET 0.000000 -7.620900 0.000000
									CHANNELS 3 Zrotation Xrotation Yrotation
									End Site
									{
									    OFFSET 0.000000 -5.000000 0.000000
									}
								}
							}
						}
					}
				}
				JOINT RightShoulder
				{
					OFFSET -2.000000 10.384400 0.000000
					CHANNELS 3 Zrotation Xrotation Yrotation
					JOINT RightArm
					{
						OFFSET -15.649100 0.000000 0.000000
						CHANNELS 3 Zrotation Xrotation Yrotation
						JOINT RightForeArm
						{
							OFFSET 0.000000 -26.641600 0.000000
							CHANNELS 3 Zrotation Xrotation Yrotation
							JOINT RightHand
							{
								OFFSET 0.000000 -23.740600 0.000000
								CHANNELS 3 Zrotation Xrotation Yrotation
								JOINT RightFinger0
								{
									OFFSET 0.000000 -7.620900 0.000000
									CHANNELS 3 Zrotation Xrotation Yrotation
									End Site
									{
									    OFFSET 0.000000 -5.000000 0.000000
									}
								}
							}
						}
					}
				}
				JOINT Neck
				{
					OFFSET 0.000000 10.384400 0.000000
					CHANNELS 3 Zrotation Xrotation Yrotation
					JOINT Head
					{
						OFFSET 0.000000 10.146900 0.000000
						CHANNELS 3 Zrotation Xrotation Yrotation
						JOINT HeadTip
						{
							OFFSET 0.000000 10.000000 0.000000
							CHANNELS 3 Zrotation Xrotation Yrotation
							End Site
							{
							    OFFSET 0.000000 5.000000 0.000000
							}
						}
					}
				}
			}
		}
	}
}
MOTION
Frames:	4
Frame Time:	0.033332
-57.541700 74.539500 -39.200500 -1.014102 -0.382214 -21.561184 -33.628209 -24.692205 -49.828349 -0.000000 56.618810 -0.000000 10.784782 4.640005 0.724565 -0.000000 -0.577075 -0.000000 -0.000000 -0.000000 -0.000000 35.535569 -1.026348 25.094088 -0.000000 26.531139 -0.000000 -17.404242 11.667428 -2.376069 0.000000 -3.755661 0.000000 -0.000000 0.000000 -0.000000 3.372194 13.390655 -8.479834 -0.000000 4.747963 0.000000 -0.000000 -0.000000 -0.000000 -4.310092 0.000000 2.362072 23.707449 -7.830088 -24.357379 -0.000000 -31.269818 -0.000000 14.972517 7.864409 -21.312634 0.000000 0.000000 -0.000000 17.390625 0.000000 2.694807 -33.793101 4.228490 -5.731026 -0.000110 -35.959734 -0.000036 -10.802011 17.904615 26.975727 -0.000000 0.000000 -0.000000 -0.000000 -0.000000 -0.000000 17.313808 3.275611 -53.114112 -0.000000 0.000000 -0.000000 
-56.376400 75.573500 -38.979200 -0.456197 -0.394260 -20.897230 -33.526541 -23.734747 -49.266570 -0.000000 53.218738 -0.000000 10.796131 6.998405 -0.614523 -0.000000 -0.336031 -0.000000 -0.000000 0.000000 -0.000000 34.522715 -6.309133 29.318524 0.000000 36.639984 -0.000000 -15.873047 9.857883 -4.822576 0.000000 -6.258569 -0.000000 -0.000000 -0.000000 -0.000000 3.814034 13.737873 -6.118267 -0.000000 5.014869 -0.000000 -0.000000 -0.000000 0.000000 -4.499992 -0.000000 2.628997 24.849900 -5.574984 -26.896618 -0.000000 -29.017757 -0.000000 13.000279 9.043113 -22.235165 0.000000 -0.000000 -0.000000 15.161851 -0.000000 3.980162 -33.349731 6.857444 -7.987141 -0.000117 -37.612145 -0.000040 -10.826440 18.037578 27.487398 0.000000 0.000000 -0.000000 -0.000000 -0.000000 0.000000 17.641097 0.533972 -55.382278 -0.000000 0.000000 0.000000 
-54.546100 76.922000 -38.520100 0.543920 -0.760081 -20.327233 -33.622947 -22.656510 -47.387457 -0.000000 48.677030 -0.000000 11.657554 10.270631 -3.345576 -0.000000 0.773130 -0.000000 -0.000000 -0.000000 0.000000 31.410151 -10.814686 33.290503 -0.000000 44.365701 0.000000 -13.231403 8.461227 -6.168893 0.000000 -8.589650 -0.000000 -0.000000 0.000000 -0.000000 4.177050 13.976456 -2.753152 0.000000 5.457648 -0.000000 -0.000000 0.000000 -0.000000 -5.073913 -0.000000 2.828890 27.453287 -3.388805 -28.702784 0.000000 -27.348688 -0.000000 8.291622 11.145360 -23.482772 -0.000000 0.000000 -0.000000 12.321637 0.000000 4.832989 -33.056037 10.222873 -9.719379 -0.000127 -39.954177 -0.000046 -10.629486 18.167713 28.479579 0.000000 0.000000 0.000000 -0.000000 0.000000 -0.000000 17.180553 -1.688871 -58.380847 -0.000000 0.000000 -0.000000 
-52.440400 78.333800 -37.560300 1.112794 -1.584919 -20.572301 -32.615690 -21.545431 -43.007420 0.000000 43.471363 -0.000000 12.089062 14.342769 -8.222328 0.000000 1.314505 -0.000000 0.000000 0.000000 -0.000000 26.843623 -11.220459 36.641473 0.000000 44.291050 -0.000000 -9.364709 5.323874 -3.892744 0.000000 -7.818530 -0.000000 -0.000000 0.000000 0.000000 5.065313 14.019679 0.861652 0.000000 6.018716 -0.000000 0.000000 0.000000 -0.000000 -6.093878 0.000000 3.131476 31.712773 -0.828835 -27.720693 -0.000000 -26.862212 0.000000 2.355908 14.182502 -21.640894 0.000000 0.000000 -0.000000 9.831123 0.000000 4.421749 -34.024425 12.645082 -10.350271 -0.000135 -41.567341 -0.000051 -10.569454 18.060117 30.451453 0.000000 0.000000 -0.000000 0.000000 0.000000 -0.000000 15.776316 -2.053240 -60.841971 -0.000000 0.000000 -0.000000 
